<?xml version="1.0" encoding="UTF-8"?>
<svg width="15px" height="15px" viewBox="0 0 15 15" version="1.1" xmlns="http://www.w3.org/2000/svg" xmlns:xlink="http://www.w3.org/1999/xlink">
    <!-- Generator: Sketch 54.1 (76490) - https://sketchapp.com -->
    <title>close-icon-dark</title>
    <desc>Created with Sketch.</desc>
    <g id="Page-1" stroke="none" stroke-width="1" fill="none" fill-rule="evenodd">
        <g id="Day-913-Share-Post-UI-Design" transform="translate(-1152.000000, -444.000000)" fill="#7D7A9E">
            <g id="Group-19" transform="translate(396.000000, 407.000000)">
                <g id="Group-21" transform="translate(744.000000, 25.000000)">
                    <path d="M20.82125,19.495625 L26.71625,13.600625 C27.0825,13.2346875 27.0825,12.6409375 26.71625,12.275 C26.35,11.90875 25.756875,11.90875 25.390625,12.275 L19.495625,18.17 L13.6003125,12.275 C13.2340625,11.90875 12.6409375,11.90875 12.2746875,12.275 C11.9084375,12.6409375 11.9084375,13.2346875 12.2746875,13.600625 L18.17,19.495625 L12.2746875,25.390625 C11.9084375,25.7565625 11.9084375,26.3503125 12.2746875,26.71625 C12.4578125,26.8990625 12.6978125,26.990625 12.9375,26.990625 C13.1771875,26.990625 13.4171875,26.8990625 13.6003125,26.7159375 L19.495625,20.8209375 L25.390625,26.7159375 C25.57375,26.8990625 25.81375,26.990625 26.0534375,26.990625 C26.293125,26.990625 26.533125,26.8990625 26.71625,26.7159375 C27.0825,26.35 27.0825,25.75625 26.71625,25.3903125 L20.82125,19.495625 Z" id="close-icon-dark"></path>
                </g>
            </g>
        </g>
    </g>
</svg>