<?xml version="1.0" encoding="UTF-8"?>
<svg width="18px" height="18px" viewBox="0 0 18 18" version="1.1" xmlns="http://www.w3.org/2000/svg" xmlns:xlink="http://www.w3.org/1999/xlink">
    <!-- Generator: Sketch 54.1 (76490) - https://sketchapp.com -->
    <title>Path</title>
    <desc>Created with Sketch.</desc>
    <g id="Page-1" stroke="none" stroke-width="1" fill="none" fill-rule="evenodd" opacity="0.5">
        <g id="Day-946-Settings-Pop-Up-UI-Design" transform="translate(-1198.000000, -247.000000)" fill="#242E4C" fill-rule="nonzero">
            <g id="Group-9" transform="translate(344.000000, 207.000000)">
                <g id="Group-3" transform="translate(831.000000, 40.000000)">
                    <path d="M33.728407,9 L40.6420352,15.9136281 C41.1193216,16.3909146 41.1193216,17.1647488 40.6420352,17.6420352 C40.1647488,18.1193216 39.3909146,18.1193216 38.9136281,17.6420352 L32,10.728407 L25.0863719,17.6420352 C24.6090854,18.1193216 23.8352512,18.1193216 23.3579648,17.6420352 C22.8806784,17.1647488 22.8806784,16.3909146 23.3579648,15.9136281 L30.271593,9 L23.3579648,2.08637185 C22.8806784,1.60908543 22.8806784,0.835251242 23.3579648,0.357964818 C23.8352512,-0.119321606 24.6090854,-0.119321606 25.0863719,0.357964818 L32,7.27159296 L38.9136281,0.357964818 C39.3909146,-0.119321606 40.1647488,-0.119321606 40.6420352,0.357964818 C41.1193216,0.835251242 41.1193216,1.60908543 40.6420352,2.08637185 L33.728407,9 Z" id="Path"></path>
                </g>
            </g>
        </g>
    </g>
</svg>