<svg width="92" height="24" viewBox="0 0 92 24" fill="none" xmlns="http://www.w3.org/2000/svg">
<g clip-path="url(#clip0)">
<path d="M67.7786 1.71923C67.7786 0.770223 68.5799 0 69.5678 0H90.1976C91.1858 0 91.9868 0.770223 91.9868 1.71923V22.2811C91.9868 23.2304 91.1858 24 90.1976 24H69.5678C68.5799 24 67.7786 23.2304 67.7786 22.2814V1.71892V1.71923Z" fill="#006699"/>
<path d="M0.0125732 20.1036H10.1153V16.8357H3.66931V4.36953H0.0125732V20.1036ZM15.2303 20.1036V9.26629H11.5739V20.1036H15.2303ZM13.4024 7.7869C14.6772 7.7869 15.4709 6.95467 15.4709 5.91407C15.4472 4.8508 14.6772 4.04218 13.4267 4.04218C12.1758 4.04218 11.3579 4.85111 11.3579 5.91407C11.3579 6.95467 12.1515 7.7869 13.3784 7.7869H13.4024V7.7869ZM16.9278 20.1036H20.5842V14.0513C20.5842 13.7274 20.6079 13.4035 20.7047 13.1728C20.9686 12.5257 21.5702 11.8552 22.5805 11.8552C23.9039 11.8552 24.4333 12.8492 24.4333 14.3053V20.1032H28.0891V13.8895C28.0891 10.5606 26.2851 9.01164 23.8793 9.01164C21.907 9.01164 21.0408 10.0979 20.5596 10.8379H20.5842V9.26629H16.9278C16.976 10.2833 16.9278 20.1036 16.9278 20.1036V20.1036ZM33.2475 4.36953H29.591V20.1036H33.2475V16.5899L34.1612 15.4564L37.024 20.1036H41.522L36.7115 13.3761L40.9207 8.79949H36.5192C36.5192 8.79949 33.5123 12.8939 33.2475 13.3799V4.36953Z" fill="#17272F"/>
<path d="M51.2998 15.5829C51.348 15.3047 51.4202 14.7708 51.4202 14.1671C51.4202 11.3657 49.9767 8.52155 46.1762 8.52155C42.1108 8.52155 40.2344 11.689 40.2344 14.5618C40.2344 18.1149 42.5198 20.3336 46.5126 20.3336C48.1006 20.3336 49.5674 20.1032 50.7707 19.6176L50.2895 17.2386C49.3029 17.5609 48.2926 17.7224 47.0421 17.7224C45.3343 17.7224 43.8432 17.0315 43.7227 15.5596L51.2998 15.5823V15.5829V15.5829ZM43.6988 13.146C43.7949 12.2213 44.4208 10.8568 45.9842 10.8568C47.6437 10.8568 48.029 12.3135 48.029 13.146H43.6991H43.6988ZM60.4453 4.36952V9.81617H60.397C59.8676 9.05381 58.7612 8.54516 57.2946 8.54516C54.4798 8.54516 52.0024 10.7642 52.026 14.5552C52.026 18.0692 54.2635 20.3579 57.0534 20.3579C58.5692 20.3579 60.012 19.7101 60.7341 18.4618H60.806L60.9507 20.1036H64.1979C64.1499 19.3406 64.1014 18.023 64.1014 16.7284V4.3692H60.445L60.4453 4.36952ZM60.4453 15.0872C60.4453 15.3642 60.4213 15.6421 60.3728 15.8725C60.1571 16.8672 59.2909 17.56 58.2324 17.56C56.7173 17.56 55.7307 16.3582 55.7307 14.4627C55.7307 12.683 56.5732 11.2496 58.2567 11.2496C59.3871 11.2496 60.1807 12.0123 60.3974 12.9597C60.4453 13.1684 60.4453 13.3997 60.4453 13.6075V15.0869V15.0872Z" fill="#17272F"/>
<path d="M75.1169 20.0903V9.25307H71.4605V20.0903H75.1173H75.1169ZM73.2894 7.77369C74.5642 7.77369 75.3579 6.94146 75.3579 5.90148C75.3339 4.8379 74.5642 4.02896 73.3137 4.02896C72.0622 4.02896 71.2449 4.8379 71.2449 5.90148C71.2449 6.94146 72.0382 7.77369 73.2654 7.77369H73.2891H73.2894ZM77.1407 20.0903H80.7968V14.039C80.7968 13.7155 80.8207 13.3912 80.9172 13.1602C81.1815 12.5127 81.7831 11.8426 82.7934 11.8426C84.1161 11.8426 84.6455 12.8363 84.6455 14.2934V20.0903H88.3016V13.8766C88.3016 10.548 86.498 8.99906 84.0925 8.99906C82.1202 8.99906 81.254 10.085 80.7728 10.8247H80.7971V9.25338H77.141C77.1886 10.2701 77.1407 20.0906 77.1407 20.0906V20.0903Z" fill="white"/>
</g>
<defs>
<clipPath id="clip0">
<rect width="92" height="24" fill="white"/>
</clipPath>
</defs>
</svg>
