<?xml version="1.0" encoding="UTF-8"?>
<svg width="65px" height="65px" viewBox="0 0 65 65" version="1.1" xmlns="http://www.w3.org/2000/svg" xmlns:xlink="http://www.w3.org/1999/xlink">
    <!-- Generator: Sketch 54.1 (76490) - https://sketchapp.com -->
    <title>uidesigndaily-symbol</title>
    <desc>Created with Sketch.</desc>
    <defs>
        <linearGradient x1="0%" y1="50%" x2="99.2074603%" y2="50%" id="linearGradient-1">
            <stop stop-color="#BA81FF" offset="0%"></stop>
            <stop stop-color="#FF6A95" offset="100%"></stop>
        </linearGradient>
    </defs>
    <g id="Page-1" stroke="none" stroke-width="1" fill="none" fill-rule="evenodd">
        <g id="Day-1156-Profile-Page-UI-Components" transform="translate(-811.000000, -566.000000)" fill-rule="nonzero">
            <g id="Group-4" transform="translate(771.000000, 458.000000)">
                <g id="uidesigndaily-symbol" transform="translate(40.000000, 108.000000)">
                    <circle id="Mask" fill="url(#linearGradient-1)" cx="32.5" cy="32.5" r="32.5"></circle>
                    <path d="M27.8787529,45 C31.0935335,45 33.5381062,44.1599444 35.2124711,42.4798331 C36.886836,40.7997218 37.7240185,38.3685675 37.7240185,35.18637 L37.7240185,35.18637 L37.7240185,23.1363004 C37.7240185,22.4909597 37.5342571,21.9735744 37.1547344,21.5841446 C36.7752117,21.1947149 36.2617398,21 35.6143187,21 C34.9668976,21 34.4534257,21.1947149 34.073903,21.5841446 C33.6943803,21.9735744 33.5046189,22.4909597 33.5046189,23.1363004 L33.5046189,23.1363004 L33.5046189,35.4200278 C33.5046189,37.4228095 33.0246343,38.9471488 32.0646651,39.9930459 C31.1046959,41.038943 29.7093918,41.5618915 27.8787529,41.5618915 C26.0257891,41.5618915 24.6193226,41.0445063 23.6593533,40.0097357 C22.6993841,38.9749652 22.2193995,37.4450626 22.2193995,35.4200278 L22.2193995,35.4200278 L22.2193995,23.1363004 C22.2193995,22.4909597 22.0296382,21.9735744 21.6501155,21.5841446 C21.2705928,21.1947149 20.7571209,21 20.1096998,21 C19.4622787,21 18.9488068,21.1947149 18.5692841,21.5841446 C18.1897614,21.9735744 18,22.4909597 18,23.1363004 L18,23.1363004 L18,35.18637 C18,38.3908206 18.8371824,40.8275382 20.5115473,42.4965229 C22.1859122,44.1655076 24.6416474,45 27.8787529,45 Z M44.8233256,44.8998609 C45.4930716,44.8998609 46.0232871,44.6995828 46.4139723,44.2990264 C46.8046574,43.8984701 47,43.3755216 47,42.7301808 L47,42.7301808 L47,23.1363004 C47,22.4909597 46.8046574,21.9735744 46.4139723,21.5841446 C46.0232871,21.1947149 45.4930716,21 44.8233256,21 C44.1759045,21 43.6568514,21.1947149 43.2661663,21.5841446 C42.8754811,21.9735744 42.6801386,22.4909597 42.6801386,23.1363004 L42.6801386,23.1363004 L42.6801386,42.7301808 C42.6801386,43.3755216 42.8754811,43.8984701 43.2661663,44.2990264 C43.6568514,44.6995828 44.1759045,44.8998609 44.8233256,44.8998609 Z" id="UI" fill="#FFFFFF"></path>
                </g>
            </g>
        </g>
    </g>
</svg>