<?xml version="1.0" standalone="no"?>
<!DOCTYPE svg PUBLIC "-//W3C//DTD SVG 1.1//EN" "http://www.w3.org/Graphics/SVG/1.1/DTD/svg11.dtd">
<svg xmlns="http://www.w3.org/2000/svg">
<metadata>Copyright (C) 2020 by original authors @ fontello.com</metadata>
<defs>
<font id="iconfont" horiz-adv-x="1000" >
<font-face font-family="iconfont" font-weight="400" font-stretch="normal" units-per-em="1000" ascent="850" descent="-150" />
<missing-glyph horiz-adv-x="1000" />
<glyph glyph-name="dot-3" unicode="&#xe800;" d="M110 460q46 0 78-32t32-78q0-44-32-77t-78-33-78 33-32 77q0 46 32 78t78 32z m350 0q46 0 78-32t32-78q0-44-33-77t-77-33-77 33-33 77q0 46 32 78t78 32z m350 0q46 0 78-32t32-78q0-44-32-77t-78-33-78 33-32 77q0 46 32 78t78 32z" horiz-adv-x="920" />

<glyph glyph-name="minus" unicode="&#xe801;" d="M786 439v-107q0-22-16-38t-38-15h-678q-23 0-38 15t-16 38v107q0 23 16 38t38 16h678q23 0 38-16t16-38z" horiz-adv-x="785.7" />

<glyph glyph-name="camera" unicode="&#xe802;" d="M809 669l163 0c36 0 70-14 95-39 25-25 40-59 40-95l0-509c0-36-15-70-40-95-25-25-59-39-95-39l-833 0c-36 0-70 14-95 39-25 25-39 59-39 95l0 509c0 36 14 70 39 95 25 25 59 39 95 39l163 0 80 121c8 11 21 18 35 18l277 0c14 0 27-7 35-18l80-121z m-370 56l-80-120c-8-12-21-19-35-19l-185 0c-14 0-27-5-36-15-10-9-15-22-15-36l0-509c0-14 5-27 15-36 9-10 22-15 36-15l833 0c14 0 27 5 36 15 10 9 15 22 15 36l0 509c0 14-5 27-15 36-9 10-22 15-36 15l-185 0c-14 0-27 7-35 19l-80 120-233 0z m117-648c125 0 226 101 226 227 0 125-101 227-226 227-126 0-227-102-227-227 0-126 101-227 227-227z m0 83c-80 0-144 64-144 144 0 79 64 143 144 143 79 0 143-64 143-143 0-80-64-144-143-144z" horiz-adv-x="1111" />

<glyph glyph-name="calendar" unicode="&#xe803;" d="M742 721l-584 0c-66 0-120-54-120-121l0-583c0-67 54-121 120-121l584 0c66 0 121 54 121 121l0 583c0 67-55 121-121 121z m0-75c25 0 46-21 46-46l0-583c0-26-21-46-46-46l-584 0c-25 0-45 20-45 46l0 583c0 25 20 46 45 46l584 0z m-163 121l0-167c0-21 17-37 38-37 20 0 37 16 37 37l0 167c0 20-17 37-37 37-21 0-38-17-38-37z m-333 0l0-167c0-21 17-37 37-37 21 0 38 16 38 37l0 167c0 20-17 37-38 37-20 0-37-17-37-37z m-146-267l700 0 0-100-700 0z" horiz-adv-x="900" />

<glyph glyph-name="briefcase" unicode="&#xe804;" d="M950 650l-800 0c-83 0-150-67-150-150l0-500c0-83 67-150 150-150l800 0c83 0 150 67 150 150l0 500c0 83-67 150-150 150z m0-100c28 0 50-22 50-50l0-500c0-28-22-50-50-50l-800 0c-28 0-50 22-50 50l0 500c0 28 22 50 50 50l800 0z m-150-650l0 800c0 40-16 78-44 106-28 28-66 44-106 44l-200 0c-40 0-78-16-106-44-28-28-44-66-44-106l0-800c0-28 22-50 50-50 28 0 50 22 50 50l0 800c0 13 5 26 15 35 9 10 22 15 35 15l200 0c13 0 26-5 35-15 10-9 15-22 15-35l0-800c0-28 22-50 50-50 28 0 50 22 50 50z" horiz-adv-x="1100" />

<glyph glyph-name="up-open" unicode="&#xe805;" d="M939 107l-92-92q-11-10-26-10t-25 10l-296 297-296-297q-11-10-25-10t-25 10l-93 92q-11 11-11 26t11 25l414 414q11 10 25 10t25-10l414-414q11-11 11-25t-11-26z" horiz-adv-x="1000" />

<glyph glyph-name="edit" unicode="&#xe806;" d="M444 725l-302 0c-34 0-67-13-91-37-24-24-37-57-37-91l0-605c0-34 13-67 37-91 24-24 57-37 91-37l605 0c34 0 67 13 91 37 24 24 37 57 37 91l0 302c0 24-19 42-42 42-23 0-41-18-41-42l0-302c0-12-5-23-13-32-9-8-20-13-32-13l-605 0c-12 0-23 5-32 13-8 9-13 20-13 32l0 605c0 12 5 23 13 32 9 8 20 13 32 13l302 0c24 0 42 18 42 41 0 23-18 42-42 42z m409 111c35 0 69-14 94-39 25-25 39-59 39-94 0-36-14-70-39-95l-411-411c-5-5-12-9-19-11l-174-43c-30-8-58 20-50 50l43 174c2 7 6 14 11 19l411 411c25 25 59 39 95 39z m-368-572l403 403c10 10 15 22 15 36 0 13-5 26-15 35-9 10-22 15-35 15-14 0-26-5-36-15l-403-403-23-94 94 23z" horiz-adv-x="1000" />

<glyph glyph-name="grid" unicode="&#xe807;" d="M400 850l-350 0c-28 0-50-22-50-50l0-350c0-28 22-50 50-50l350 0c28 0 50 22 50 50l0 350c0 28-22 50-50 50z m-50-350l-250 0 0 250 250 0 0-250z m600 350l-350 0c-28 0-50-22-50-50l0-350c0-28 22-50 50-50l350 0c28 0 50 22 50 50l0 350c0 28-22 50-50 50z m-50-100l0-250-250 0 0 250 250 0z m50-450l-350 0c-28 0-50-22-50-50l0-350c0-28 22-50 50-50l350 0c28 0 50 22 50 50l0 350c0 28-22 50-50 50z m-50-100l0-250-250 0 0 250 250 0z m-500 100l-350 0c-28 0-50-22-50-50l0-350c0-28 22-50 50-50l350 0c28 0 50 22 50 50l0 350c0 28-22 50-50 50z m-50-350l-250 0 0 250 250 0 0-250z" horiz-adv-x="1000" />

<glyph glyph-name="heart" unicode="&#xe808;" d="M926 803c-38 15-78 23-119 23-40 0-81-8-118-23-38-16-72-39-101-67l-17-17-16 17c-58 58-137 90-219 90-82 0-161-32-219-90-58-58-91-137-91-219 0-82 33-161 91-219l50-51 371-370c18-19 49-19 67 0l371 370 50 51c29 29 52 63 67 100 16 38 24 78 24 119 0 40-8 81-24 118-15 38-38 72-67 101-29 28-63 51-100 67z m-691-488l-51 50c-40 40-63 95-63 152 0 57 23 111 63 151 40 40 95 63 152 63 57 0 111-23 151-63l51-50c18-19 49-19 67 0l51 50c20 20 43 36 69 47 26 11 54 16 82 16 28 0 56-5 82-16 26-11 50-27 70-47 20-20 35-43 46-69 11-26 17-54 17-82 0-28-6-56-17-82-11-26-26-50-46-70l-51-50-337-337-336 337z" horiz-adv-x="1143" />

<glyph glyph-name="down-open" unicode="&#xe809;" d="M939 399l-414-413q-10-11-25-11t-25 11l-414 413q-11 11-11 26t11 25l93 92q10 11 25 11t25-11l296-296 296 296q11 11 25 11t26-11l92-92q11-11 11-25t-11-26z" horiz-adv-x="1000" />

<glyph glyph-name="message" unicode="&#xe80a;" d="M271 50l-186-185c-31-32-85-10-85 35l0 800c0 40 16 78 44 106 28 28 66 44 106 44l700 0c40 0 78-16 106-44 28-28 44-66 44-106l0-500c0-40-16-78-44-106-28-28-66-44-106-44l-579 0z m-56 85c9 10 22 15 35 15l600 0c13 0 26 5 35 15 10 9 15 22 15 35l0 500c0 13-5 26-15 35-9 10-22 15-35 15l-700 0c-13 0-26-5-35-15-10-9-15-22-15-35l0-679 115 114z" horiz-adv-x="1000" />

<glyph glyph-name="hash" unicode="&#xe80b;" d="M799 462l-153 0-28-223 181 0 0-112-195 0-28-224-112 0 28 224-223 0-28-224-111 0 27 224-139 0 0 112 154 0 27 223-181 0 0 112 196 0 27 223 112 0-28-223 223 0 28 223 112 0-28-223 139 0 0-112z m-293-223l28 223-223 0-28-223 223 0z" horiz-adv-x="817" />

<glyph glyph-name="notification" unicode="&#xe80c;" d="M773 532c0 84-34 165-93 225-60 60-141 93-225 93-85 0-166-33-225-93-60-60-94-141-94-225 0-132-23-231-62-302-13-24-27-43-40-57-7-7-12-11-14-12-37-25-19-84 26-84l818 0c45 0 62 59 25 84-2 1-6 5-14 12-13 14-27 33-40 57-38 71-62 170-62 302z m-7-364l-623 0c4 6 7 12 11 18 46 85 73 199 73 346 0 60 24 118 67 161 43 42 100 66 161 66 60 0 118-24 160-66 43-43 67-101 67-161 0-147 27-261 74-346 3-6 6-12 10-18z m-272-204c-4-7-10-13-17-17-7-4-14-6-22-6-8 0-16 2-23 6-7 4-13 10-17 17-12 21-40 29-62 16-22-12-29-40-16-62 12-21 29-38 50-50 20-12 44-18 68-18 23 0 47 6 68 18 20 12 38 29 50 50 12 22 5 50-17 62-22 13-49 5-62-16z" horiz-adv-x="909" />

<glyph glyph-name="plus" unicode="&#xe80d;" d="M422 715l0-730c0-43 35-78 78-78 43 0 78 35 78 78l0 730c0 43-35 78-78 78-43 0-78-35-78-78z m-287-443l730 0c43 0 78 35 78 78 0 43-35 78-78 78l-730 0c-43 0-78-35-78-78 0-43 35-78 78-78z" horiz-adv-x="1000" />

<glyph glyph-name="search" unicode="&#xe80e;" d="M475-25c237 0 430 189 430 422 0 233-193 422-430 422-237 0-429-189-429-422 0-233 192-422 429-422z m0 94c-185 0-335 147-335 328 0 181 150 328 335 328 186 0 336-147 336-328 0-181-150-328-336-328z m512-107l-208 204c-19 18-49 17-67-1-18-19-18-48 1-66l208-204c19-19 48-18 66 0 18 19 18 48 0 67z" horiz-adv-x="1000" />

<glyph glyph-name="share" unicode="&#xe810;" d="M700 467c97 0 175 78 175 175 0 96-78 175-175 175-97 0-175-79-175-175 0-97 78-175 175-175z m0 100c-41 0-75 33-75 75 0 41 34 75 75 75 41 0 75-34 75-75 0-42-34-75-75-75z m-500-392c97 0 175 78 175 175 0 97-78 175-175 175-97 0-175-78-175-175 0-97 78-175 175-175z m0 100c-41 0-75 34-75 75 0 41 34 75 75 75 41 0 75-34 75-75 0-41-34-75-75-75z m500-392c97 0 175 79 175 175 0 97-78 175-175 175-97 0-175-78-175-175 0-96 78-175 175-175z m0 100c-41 0-75 34-75 75 0 42 34 75 75 75 41 0 75-33 75-75 0-41-34-75-75-75z m-417 261l284-166c24-14 55-6 69 18 14 24 6 55-18 69l-285 165c-24 14-54 6-68-18-14-24-6-54 18-68z m284 378l-284-166c-24-14-32-44-18-68 14-24 44-32 68-18l284 166c24 14 32 44 18 68-14 24-44 32-68 18z" horiz-adv-x="900" />

<glyph glyph-name="thumbs-up" unicode="&#xe811;" d="M708-117l-469 0c-32 0-63 11-88 32-24 21-41 50-45 82l-58 375c-3 19-1 38 4 57 5 18 15 36 27 50 13 15 29 26 46 34 18 8 37 12 56 12l186 0 0 117c0 46 18 91 51 123 33 33 77 52 124 52 19 0 37-12 45-30l154-345 92 0c36 0 70-14 95-39 25-25 39-59 39-95l0-291c0-36-14-70-39-95-25-25-59-39-95-39l-124 0c0 0 0 0-1 0z m-196 828c-9-4-17-9-23-16-14-14-22-33-22-53l0-167c0-28-23-50-50-50l-237 0c-5 0-9-1-14-3-4-2-8-5-11-8-3-4-6-8-7-13-1-5-2-10-1-14l57-375c2-8 6-16 12-21 6-5 14-8 22-8l420 0 0 398-146 330z m321-728c9 0 18 4 24 10 6 6 10 15 10 24l0 291c0 9-4 18-10 24-6 6-15 10-24 10l-75 0 0-359 75 0z" horiz-adv-x="1000" />

<glyph glyph-name="users" unicode="&#xe812;" d="M900-100l0 100c0 66-26 130-73 177-47 47-111 73-177 73l-400 0c-66 0-130-26-177-73-47-47-73-111-73-177l0-100c0-28 22-50 50-50 28 0 50 22 50 50l0 100c0 40 16 78 44 106 28 28 66 44 106 44l400 0c40 0 78-16 106-44 28-28 44-66 44-106l0-100c0-28 22-50 50-50 28 0 50 22 50 50z m-450 450c138 0 250 112 250 250 0 138-112 250-250 250-138 0-250-112-250-250 0-138 112-250 250-250z m0 100c-83 0-150 67-150 150 0 83 67 150 150 150 83 0 150-67 150-150 0-83-67-150-150-150z m750-550l0 100c0 55-18 109-52 153-34 44-82 75-135 89-27 7-54-9-61-36-7-27 9-54 36-61 32-8 60-27 81-53 20-26 31-59 31-92l0-100c0-28 22-50 50-50 28 0 50 22 50 50z m-412 845c32-8 61-27 81-53 20-27 31-59 31-92 0-34-11-66-31-92-20-26-49-45-81-54-27-6-43-34-36-60 6-27 34-43 60-36 54 13 102 45 136 89 34 43 52 97 52 153 0 55-18 109-52 153-34 44-82 75-136 89-26 7-54-9-60-36-7-27 9-54 36-61z" horiz-adv-x="1200" />

<glyph glyph-name="video" unicode="&#xe813;" d="M1338 691l-417-297c-30-22-30-66 0-88l417-297c35-26 85 0 85 43l0 596c0 43-50 69-85 43z m-22-147l0-387-271 193 271 194z m-483 276l-654 0c-96 0-173-77-173-172l0-596c0-95 77-172 173-172l654 0c96 0 173 77 173 172l0 596c0 95-77 172-173 172z m0-107c37 0 66-29 66-65l0-596c0-36-29-65-66-65l-654 0c-37 0-66 29-66 65l0 596c0 36 29 65 66 65l654 0z" horiz-adv-x="1429" />

<glyph glyph-name="send" unicode="&#xe818;" d="M991 841c-8 9-20 11-31 7l-942-377c-10-4-18-14-18-26 0-11 6-22 17-27l371-180 180-372c5-10 15-16 26-16 1 0 1 0 1 0 12 0 22 8 26 18l377 942c4 11 2 23-7 31z m-889-399l747 299-445-446-302 147z m490-490l-147 302 446 445-299-747z" horiz-adv-x="1000" />

<glyph glyph-name="home" unicode="&#xe81a;" d="M429 805c17 14 42 14 59 0l375-292c12-9 19-23 19-38v-458c0-35-14-69-39-94-24-24-58-38-93-38h-583c-35 0-69 14-94 38-24 25-38 59-38 94v458c0 15 7 29 19 38l375 292z m-297-354v-434c0-9 4-18 10-25 7-6 16-10 25-10h583c9 0 18 4 25 10 6 7 10 16 10 25v434l-327 254-326-254z m153-101c0 27 22 49 48 49h250c27 0 49-22 49-49h-49c49 0 49 0 49 0v-375l-97 0v326h-153v-326l-97 0v375c0 0 0 0 48 0h-48z" horiz-adv-x="917" />
</font>
</defs>
</svg>
