<?xml version="1.0" encoding="UTF-8"?>
<svg width="20px" height="20px" viewBox="0 0 20 20" version="1.1" xmlns="http://www.w3.org/2000/svg" xmlns:xlink="http://www.w3.org/1999/xlink">
    <!-- Generator: Sketch 54.1 (76490) - https://sketchapp.com -->
    <title>dribbble-logo</title>
    <desc>Created with Sketch.</desc>
    <g id="Page-1" stroke="none" stroke-width="1" fill="none" fill-rule="evenodd">
        <g id="Day-1014-Footer-UI-Design" transform="translate(-1417.000000, -800.000000)" fill="#10182F" fill-rule="nonzero">
            <g id="Group-13" transform="translate(79.000000, 303.000000)">
                <g id="Group-11" transform="translate(1134.000000, 482.000000)">
                    <g id="dribbble-logo" transform="translate(204.000000, 15.000000)">
                        <path d="M9.99176471,0.000106951872 C4.48224599,0.000106951872 0,4.48235294 0,9.99176471 C0,15.5011765 4.48224599,19.9834225 9.99176471,19.9834225 C15.5012834,19.9834225 19.9835294,15.5011765 19.9835294,9.99176471 C19.9835294,4.48235294 15.5012834,0.000106951872 9.99176471,0.000106951872 Z M16.5029947,4.71240642 C17.6247059,6.09315508 18.3152941,7.83593583 18.3727273,9.73572193 C16.2948663,9.3055615 14.413369,9.35604278 12.7524064,9.68171123 C12.4516578,8.97839572 12.1403209,8.30834225 11.8260963,7.67508021 C13.6349733,6.89582888 15.2097326,5.90053476 16.5029947,4.71240642 Z M15.3774332,3.5684492 C14.0936898,4.7402139 12.6059893,5.60780749 11.0826738,6.24834225 C9.96459893,4.20374332 8.89486631,2.66406417 8.24320856,1.78909091 C8.80748663,1.66887701 9.39219251,1.60438503 9.99176471,1.60438503 C12.0406417,1.60438503 13.9192513,2.34385027 15.3774332,3.5684492 Z M6.6228877,2.31304813 C7.11497326,2.95069519 8.28705882,4.54727273 9.54609626,6.81882353 C6.38181818,7.84973262 3.31144385,8.02342246 1.83604278,8.03957219 C2.45101604,5.47058824 4.25005348,3.35818182 6.6228877,2.31304813 Z M1.61304813,9.64791444 C1.62887701,9.64791444 1.64417112,9.64802139 1.66032086,9.64802139 C2.6797861,9.64802139 4.54759358,9.57946524 6.74652406,9.17850267 C8.00106952,8.94973262 9.19069519,8.64181818 10.3069519,8.2602139 C10.5975401,8.83935829 10.8864171,9.45026738 11.1665241,10.0905882 C9.60352941,10.5937968 8.28545455,11.317861 7.24139037,12.0367914 C5.49058824,13.2424599 4.26406417,14.580107 3.59433155,15.4071658 C2.35433155,13.9448128 1.60427807,12.0547594 1.60427807,9.99176471 C1.60427807,9.87647059 1.60834225,9.76213904 1.61304813,9.64791444 Z M4.75037433,16.5328342 C5.32695187,15.8068449 6.50053476,14.4854545 8.19818182,13.3259893 C9.35187166,12.5379679 10.5454545,11.9525134 11.7742246,11.5682353 C12.4871658,13.4161497 13.0958289,15.4579679 13.4587166,17.6259893 C12.4011765,18.1081283 11.2279144,18.3791444 9.99176471,18.3791444 C8.00973262,18.3791444 6.18737968,17.686631 4.75037433,16.5328342 Z M14.9346524,16.762139 C14.5606417,14.771016 14.0028877,12.8988235 13.3580749,11.1878075 C14.9441711,10.9202139 16.5834225,10.9754011 18.2670588,11.3535829 C17.9039572,13.5664171 16.6726203,15.4898396 14.9346524,16.762139 Z" id="Shape"></path>
                    </g>
                </g>
            </g>
        </g>
    </g>
</svg>