<?xml version="1.0" encoding="UTF-8"?>
<svg width="21px" height="20px" viewBox="0 0 21 20" version="1.1" xmlns="http://www.w3.org/2000/svg" xmlns:xlink="http://www.w3.org/1999/xlink">
    <!-- Generator: Sketch 54.1 (76490) - https://sketchapp.com -->
    <title>github-logo</title>
    <desc>Created with Sketch.</desc>
    <g id="Page-1" stroke="none" stroke-width="1" fill="none" fill-rule="evenodd">
        <g id="Day-1014-Footer-UI-Design" transform="translate(-1289.000000, -799.000000)" fill="#10182F" fill-rule="nonzero">
            <g id="Group-13" transform="translate(79.000000, 303.000000)">
                <g id="Group-11" transform="translate(1134.000000, 482.000000)">
                    <g id="github-logo" transform="translate(76.000000, 14.000000)">
                        <path d="M10.1120044,0.0129971304 C4.52821602,0.0129971304 0,4.55891137 0,10.1667188 C0,14.6519534 2.89745146,18.4570708 6.91747573,19.8008713 C7.42313916,19.8944191 7.60770631,19.5809077 7.60770631,19.311642 C7.60770631,19.0701877 7.5988572,18.4317876 7.59380057,17.5848013 C4.78104773,18.1979182 4.1868932,16.2233026 4.1868932,16.2233026 C3.72800364,15.0501634 3.06432039,14.7379162 3.06432039,14.7379162 C2.1452771,14.1083653 3.13258495,14.1210068 3.13258495,14.1210068 C4.14770429,14.1930639 4.68117921,15.1677301 4.68117921,15.1677301 C5.58378843,16.7188527 7.04894822,16.2713406 7.62540453,16.0109239 C7.71642395,15.3548256 7.97810477,14.9073135 8.26759709,14.6532176 C6.02245146,14.3965934 3.66100324,13.5255881 3.66100324,9.63577221 C3.66100324,8.52710514 4.05542071,7.62070344 4.7026699,6.91024632 C4.59774474,6.65362213 4.25136529,5.62080457 4.80127427,4.22390935 C4.80127427,4.22390935 5.65078883,3.95085109 7.58242314,5.26431186 C8.38895631,5.03929163 9.25364078,4.92678152 10.1145328,4.92298904 C10.9728964,4.92804567 11.8388451,5.03929163 12.6466424,5.26557601 C14.5770125,3.95211525 15.4252629,4.22517351 15.4252629,4.22517351 C15.9764361,5.62333289 15.6300566,6.65488629 15.5263956,6.91151048 C16.174909,7.6219676 16.565534,8.5283693 16.565534,9.63703637 C16.565534,13.5369656 14.2015574,14.3953293 11.9488269,14.6468968 C12.3116404,14.9604081 12.635265,15.5798458 12.635265,16.5267006 C12.635265,17.8844069 12.6226234,18.9791682 12.6226234,19.311642 C12.6226234,19.583436 12.8046622,19.8994757 13.3179106,19.7996072 C17.3316141,18.4545424 20.2265372,14.6506893 20.2265372,10.1667188 C20.2265372,4.55891137 15.6983212,0.0129971304 10.1120044,0.0129971304 Z" id="Path"></path>
                    </g>
                </g>
            </g>
        </g>
    </g>
</svg>