<?xml version="1.0" encoding="UTF-8"?>
<svg width="20px" height="16px" viewBox="0 0 20 16" version="1.1" xmlns="http://www.w3.org/2000/svg" xmlns:xlink="http://www.w3.org/1999/xlink">
    <!-- Generator: Sketch 54.1 (76490) - https://sketchapp.com -->
    <title>twitter-logo</title>
    <desc>Created with Sketch.</desc>
    <g id="Page-1" stroke="none" stroke-width="1" fill="none" fill-rule="evenodd">
        <g id="Day-1014-Footer-UI-Design" transform="translate(-1228.000000, -801.000000)" fill="#10182F" fill-rule="nonzero">
            <g id="Group-13" transform="translate(79.000000, 303.000000)">
                <g id="Group-11" transform="translate(1134.000000, 482.000000)">
                    <g id="twitter-logo" transform="translate(15.000000, 16.000000)">
                        <path d="M19.4174757,1.86771845 C18.6953883,2.18446602 17.9259709,2.39441748 17.1237864,2.49635922 C17.9490291,2.00364078 18.5788835,1.22936893 18.875,0.296116505 C18.1055825,0.754854369 17.256068,1.0788835 16.3507282,1.25970874 C15.6201456,0.481796117 14.5788835,0 13.4429612,0 C11.2390777,0 9.46480583,1.78883495 9.46480583,3.98179612 C9.46480583,4.2973301 9.49150485,4.60072816 9.55703883,4.88956311 C6.24757282,4.72815534 3.31917476,3.14199029 1.35194175,0.725728155 C1.00849515,1.32160194 0.807038835,2.00364078 0.807038835,2.73786408 C0.807038835,4.11650485 1.51699029,5.33859223 2.57524272,6.0461165 C1.93567961,6.03398058 1.30825243,5.84830097 0.776699029,5.55582524 C0.776699029,5.56796117 0.776699029,5.58373786 0.776699029,5.59951456 C0.776699029,7.53398058 2.1565534,9.1407767 3.96601942,9.51092233 C3.64199029,9.59951456 3.28883495,9.64199029 2.9223301,9.64199029 C2.66747573,9.64199029 2.41019417,9.62742718 2.16868932,9.57402913 C2.68446602,11.1504854 4.14805825,12.309466 5.88834951,12.3470874 C4.53398058,13.4065534 2.81432039,14.0449029 0.952669903,14.0449029 C0.626213592,14.0449029 0.313106796,14.0303398 0,13.9902913 C1.76334951,15.1274272 3.85315534,15.776699 6.10679612,15.776699 C13.4320388,15.776699 17.4368932,9.70873786 17.4368932,4.44902913 C17.4368932,4.27305825 17.4308252,4.10315534 17.4223301,3.93446602 C18.2123786,3.37378641 18.8762136,2.67354369 19.4174757,1.86771845 Z" id="Path"></path>
                    </g>
                </g>
            </g>
        </g>
    </g>
</svg>